<svg width="448" height="446" viewBox="0 0 448 446" fill="none" xmlns="http://www.w3.org/2000/svg">
<path d="M48 198.392L181.832 299.912L219.2 271.56C220.59 270.506 222.287 269.936 224.032 269.936C225.777 269.936 227.474 270.506 228.864 271.56L266.2 299.88L400 198.392V45.96H48V198.392ZM224 85.96C243.089 85.9812 261.39 93.5737 274.888 107.072C288.386 120.57 295.979 138.871 296 157.96V173.96C296.009 179.166 294.321 184.233 291.193 188.393C288.064 192.554 283.665 195.583 278.662 197.02C273.659 198.458 268.323 198.226 263.464 196.36C258.604 194.495 254.484 191.096 251.728 186.68C245.089 193.055 236.451 196.939 227.276 197.676C218.101 198.413 208.954 195.957 201.383 190.724C193.811 185.49 188.28 177.802 185.727 168.959C183.174 160.116 183.754 150.662 187.371 142.198C190.987 133.735 197.418 126.781 205.573 122.513C213.728 118.246 223.107 116.928 232.123 118.783C241.138 120.637 249.236 125.55 255.045 132.689C260.854 139.829 264.017 148.756 264 157.96V173.96C264 176.082 264.843 178.117 266.343 179.617C267.843 181.117 269.878 181.96 272 181.96C274.122 181.96 276.157 181.117 277.657 179.617C279.157 178.117 280 176.082 280 173.96V157.96C280 146.884 276.716 136.057 270.562 126.848C264.409 117.639 255.663 110.461 245.43 106.223C235.198 101.984 223.938 100.875 213.075 103.036C202.212 105.197 192.234 110.53 184.402 118.362C176.57 126.194 171.237 136.172 169.076 147.035C166.915 157.898 168.024 169.158 172.263 179.39C176.501 189.623 183.679 198.369 192.888 204.522C202.097 210.676 212.924 213.96 224 213.96H248C250.122 213.96 252.157 214.803 253.657 216.303C255.157 217.803 256 219.838 256 221.96C256 224.082 255.157 226.117 253.657 227.617C252.157 229.117 250.122 229.96 248 229.96H224C204.904 229.96 186.591 222.374 173.088 208.872C159.586 195.369 152 177.056 152 157.96C152 138.864 159.586 120.551 173.088 107.048C186.591 93.5457 204.904 85.96 224 85.96V85.96Z" fill="black"/>
<path d="M224 181.96C237.255 181.96 248 171.215 248 157.96C248 144.705 237.255 133.96 224 133.96C210.745 133.96 200 144.705 200 157.96C200 171.215 210.745 181.96 224 181.96Z" fill="black"/>
<path d="M5.24001 165.96L32 186.256V145.664L5.24001 165.96Z" fill="black"/>
<path d="M0 437.848L168.592 309.952L0 182.072V437.848Z" fill="black"/>
<path d="M416 186.256L442.76 165.96L416 145.672V186.256Z" fill="black"/>
<path d="M448 182.072L279.408 309.952L448 437.848V182.072Z" fill="black"/>
<path d="M224 288L15.784 445.96H432.216L224 288Z" fill="black"/>
<path d="M184.504 29.96H263.496L224 0L184.504 29.96Z" fill="black"/>
</svg>
