<svg width="59" height="80" viewBox="0 0 59 80" fill="none" xmlns="http://www.w3.org/2000/svg">
<path d="M40.672 67.6609V71.8693C40.672 75.317 37.8281 78.1609 34.3804 78.1609H23.9637C22.4627 78.1609 20.9008 77.5886 19.7151 76.394C18.5401 75.2102 17.672 73.3506 17.672 70.6609V67.6609H40.672Z" stroke="black" stroke-width="2"/>
<path d="M46.595 51.292C43.8012 53.4792 41.8614 56.2953 41.0755 59.411H17.1947C16.446 56.2373 14.6957 53.4923 12.2311 51.6532C3.45919 45.0122 -0.645797 34.1534 1.60963 23.1968C3.821 12.5435 12.476 3.85031 23.1252 1.64009L23.1252 1.6401L23.1306 1.63896C31.6295 -0.173598 40.3204 1.92146 46.9166 7.27054C53.5574 12.6637 57.3387 20.6284 57.3387 29.161C57.3387 37.8505 53.399 45.8958 46.595 51.292ZM40.672 28.1193C40.672 30.3799 42.5364 32.2443 44.797 32.2443C47.0576 32.2443 48.922 30.3799 48.922 28.1193C48.922 17.817 40.516 9.41095 30.2137 9.41095C27.9531 9.41095 26.0887 11.2753 26.0887 13.536C26.0887 15.7966 27.9531 17.661 30.2137 17.661C35.9947 17.661 40.672 22.3382 40.672 28.1193Z" stroke="black" stroke-width="2"/>
</svg>
