<svg width="59" height="80" viewBox="0 0 59 80" fill="none" xmlns="http://www.w3.org/2000/svg">
<path d="M40.672 67.6609V71.8693C40.672 75.317 37.8281 78.1609 34.3804 78.1609H23.9637C22.4627 78.1609 20.9008 77.5886 19.7151 76.394C18.5401 75.2102 17.672 73.3506 17.672 70.6609V67.6609H40.672Z" fill="black" stroke="black" stroke-width="2"/>
<path d="M47.547 6.49429C40.7137 0.952619 31.7137 -1.21405 22.922 0.660953C11.8804 2.95262 2.92202 11.9526 0.630354 22.9943C-1.70298 34.3276 2.54702 45.5776 11.6304 52.4526C14.0887 54.286 15.797 57.1193 16.3804 60.411V60.4526C16.4637 60.411 16.5887 60.411 16.672 60.411H41.672C41.7554 60.411 41.797 60.411 41.8804 60.4526V60.411C42.4637 57.2443 44.3387 54.3276 47.2137 52.0776C54.2554 46.4943 58.3387 38.161 58.3387 29.161C58.3387 20.3276 54.422 12.0776 47.547 6.49429ZM44.797 31.2443C43.0887 31.2443 41.672 29.8276 41.672 28.1193C41.672 21.786 36.547 16.661 30.2137 16.661C28.5054 16.661 27.0887 15.2443 27.0887 13.536C27.0887 11.8276 28.5054 10.411 30.2137 10.411C39.9637 10.411 47.922 18.3693 47.922 28.1193C47.922 29.8276 46.5054 31.2443 44.797 31.2443Z" fill="black"/>
</svg>
