<svg width="100" height="82" viewBox="0 0 100 82" fill="none" xmlns="http://www.w3.org/2000/svg">
<path d="M55.7862 38.0703H62.5666C61.1286 27.223 51.82 18.8256 40.586 18.8256C28.3588 18.8256 18.4116 28.773 18.4116 41C18.4116 53.2269 28.3588 63.1744 40.586 63.1744C51.82 63.1744 61.1286 54.7769 62.5666 43.9297H55.7862C54.4125 51.0697 48.1209 56.4818 40.586 56.4818C32.0493 56.4818 25.1041 49.5367 25.1041 41C25.1041 32.4633 32.0493 25.5181 40.586 25.5181C48.1209 25.5181 54.4125 30.9303 55.7862 38.0703Z" fill="black"/>
<path d="M91.3183 41L99.414 30.2057C100.08 29.318 100.187 28.1303 99.6908 27.1377C99.1945 26.1451 98.1801 25.5182 97.0703 25.5182H81.3802C80.4582 25.5182 79.5898 25.9524 79.0365 26.6901L69.6224 39.2422C68.8412 40.2838 68.8412 41.7162 69.6224 42.7578L79.0365 55.31C79.5898 56.0477 80.4582 56.4819 81.3802 56.4819H97.0703C98.1801 56.4819 99.1943 55.8549 99.6908 54.8623C100.187 53.8698 100.08 52.6821 99.414 51.7944L91.3183 41Z" fill="black"/>
<path d="M74.3492 58.8258L67.3166 49.4488C63.724 60.7902 53.1004 69.0338 40.5859 69.0338C25.1279 69.0338 12.5521 56.4578 12.5521 41C12.5521 25.5422 25.1279 12.9662 40.5859 12.9662C53.1004 12.9662 63.724 21.2098 67.3166 32.5512L74.349 23.1746C74.8588 22.4951 75.4619 21.9008 76.1328 21.4029C69.2193 8.88984 55.8934 0.414062 40.5859 0.414062C18.1709 0.414062 0 18.585 0 41C0 63.415 18.1709 81.5859 40.5859 81.5859C55.8934 81.5859 69.2193 73.1104 76.1326 60.5973C75.4619 60.0994 74.8588 59.5053 74.3492 58.8258V58.8258Z" fill="black"/>
<path d="M40.5859 38.0703H49.7507C48.5084 34.193 44.8703 31.3776 40.5859 31.3776C35.28 31.3776 30.9634 35.6942 30.9634 41C30.9634 46.3059 35.28 50.6225 40.5859 50.6225C44.8705 50.6225 48.5084 47.8071 49.7507 43.9297H40.5859C38.9679 43.9297 37.6562 42.618 37.6562 41C37.6562 39.3821 38.9679 38.0703 40.5859 38.0703Z" fill="black"/>
</svg>
