<svg width="30" height="45" viewBox="0 0 30 45" fill="none" xmlns="http://www.w3.org/2000/svg">
<circle cx="15" cy="9.375" r="9.125" fill="black" stroke="black" stroke-width="0.5"/>
<path d="M2.25 26L6.25 18.5L14.75 20.5L22.75 18.5L25.75 22L27.75 26L29.25 42L14.75 44L0.75 42V33.5L2.25 26Z" fill="black"/>
<path d="M29.59 41.5C29.59 44.5376 22.8538 45 14.5442 45C6.23469 45 0 45.0376 0 42C0 38.9624 6.23469 34 14.5442 34C22.8538 34 29.59 38.4624 29.59 41.5Z" fill="black"/>
<path fill-rule="evenodd" clip-rule="evenodd" d="M9.85184 18.8817C10.9023 19.3085 12.4611 19.7516 15 19.8311C17.5389 19.7516 19.0977 19.3085 20.1482 18.8817L20.2051 18.8584C20.6281 18.6839 20.9658 18.5143 21.2782 18.3576C21.3844 18.3042 21.4878 18.2523 21.5905 18.2023C21.9698 18.0173 22.4206 17.8125 22.9277 17.8125C23.5352 17.8125 24.0486 18.1635 24.4404 18.5359C24.8614 18.9361 25.2835 19.4974 25.6951 20.1743C26.521 21.5329 27.3544 23.4412 28.0642 25.6841C29.4842 30.1707 30.4329 36.0698 29.8001 41.7257L29.7484 42.1875H0.251561L0.199887 41.7257C-0.432931 36.0698 0.515832 30.1707 1.93577 25.6841C2.6456 23.4412 3.47896 21.5329 4.30494 20.1743C4.71646 19.4974 5.13865 18.9361 5.55964 18.5359C5.95141 18.1635 6.46476 17.8125 7.07233 17.8125C7.57935 17.8125 8.03019 18.0173 8.40952 18.2023C8.51225 18.2523 8.61557 18.3042 8.72184 18.3576C9.03415 18.5143 9.37192 18.6839 9.79489 18.8584L9.85184 18.8817ZM28.6033 41.1719C29.1204 35.7965 28.2074 30.2145 26.8536 25.937C26.1572 23.7365 25.3499 21.8998 24.5743 20.6241C24.1851 19.9838 23.8162 19.5057 23.4902 19.1958C23.135 18.8581 22.9452 18.8282 22.9277 18.8281L22.9182 18.8282C22.8003 18.8308 22.6248 18.8824 22.2336 19.0732C22.1513 19.1133 22.0615 19.1584 21.9642 19.2072C21.6321 19.3741 21.2127 19.5848 20.7072 19.7901C19.4848 20.2867 17.738 20.7667 15 20.8475C12.262 20.7667 10.5152 20.2867 9.29283 19.7901C8.78731 19.5848 8.36793 19.3741 8.03582 19.2073C7.93853 19.1584 7.84868 19.1133 7.7664 19.0732C7.37515 18.8824 7.19971 18.8308 7.08185 18.8282L7.07234 18.8281C7.05478 18.8282 6.865 18.8581 6.50983 19.1958C6.18375 19.5057 5.81492 19.9838 5.42566 20.6241C4.65007 21.8998 3.84281 23.7365 3.14638 25.937C1.79263 30.2145 0.879571 35.7965 1.39672 41.1719H28.6033Z" fill="black"/>
</svg>
